<svg width="18" height="20" viewBox="0 0 18 20" fill="none" xmlns="http://www.w3.org/2000/svg">
<path d="M3.5671 19.7367C2.64822 19.7368 1.76614 19.3033 1.11125 18.5298L1.03902 18.4432C0.709985 18.0579 0.448542 17.5975 0.270099 17.0891C0.0916558 16.5806 -0.000177629 16.0345 1.02669e-05 15.4828C-0.00115255 14.8856 0.0964702 14.294 0.287222 13.7423C0.477973 13.1907 0.75806 12.6899 1.11125 12.2691L9.72338 2.0479C10.5984 0.954618 11.7963 0.317533 13.059 0.273884C14.3217 0.230235 15.5482 0.783516 16.4742 1.81454C16.8918 2.31446 17.2224 2.90914 17.4465 3.56392C17.6707 4.21869 17.784 4.92046 17.7799 5.62832C17.775 6.41889 17.6399 7.20049 17.3824 7.92821C17.125 8.65593 16.7502 9.31544 16.2797 9.86882L8.53991 19.0699C8.4918 19.1476 8.43017 19.2117 8.35932 19.2579C8.28847 19.3042 8.21008 19.3313 8.1296 19.3375C8.04912 19.3437 7.96848 19.3288 7.89329 19.2939C7.81809 19.2589 7.75013 19.2047 7.69414 19.1351C7.63815 19.0654 7.59546 18.982 7.56904 18.8906C7.54262 18.7991 7.53311 18.7019 7.54115 18.6056C7.5492 18.5093 7.57462 18.4163 7.61564 18.333C7.65666 18.2496 7.71231 18.178 7.77871 18.1231L15.4963 8.92205C15.8628 8.49271 16.1551 7.98074 16.3562 7.41551C16.5574 6.85028 16.6636 6.24293 16.6686 5.62832C16.6727 5.09643 16.5883 4.56891 16.4204 4.07662C16.2524 3.58434 16.0044 3.13719 15.6908 2.76132C14.9728 1.97647 14.0268 1.56119 13.0562 1.60483C12.0857 1.64848 11.1683 2.14755 10.5013 2.99468L1.9169 13.2159C1.66393 13.5107 1.46241 13.8629 1.32409 14.2521C1.18577 14.6413 1.11341 15.0597 1.11125 15.4828C1.11007 15.8544 1.17035 16.2225 1.28862 16.5658C1.40689 16.9092 1.58078 17.221 1.80022 17.4831L1.87245 17.5697C2.3696 18.1191 3.02662 18.4122 3.70209 18.386C4.37755 18.3598 5.01744 18.0164 5.48399 17.4297L12.9015 8.62868C13.0418 8.45848 13.1524 8.25642 13.2268 8.03432C13.3012 7.81222 13.338 7.57454 13.3349 7.33519C13.3361 7.1273 13.3029 6.9212 13.2371 6.72889C13.1712 6.53658 13.0742 6.36191 12.9515 6.21506C12.6709 5.9063 12.3004 5.74233 11.92 5.75854C11.5395 5.77476 11.1796 5.96986 10.918 6.30174L5.80625 12.3825C5.70163 12.5071 5.56002 12.5768 5.41258 12.5762C5.26513 12.5756 5.12394 12.5047 5.02005 12.3791C4.91616 12.2536 4.85809 12.0836 4.85861 11.9067C4.85913 11.7298 4.9182 11.5603 5.02283 11.4357L10.1568 5.33496C10.6274 4.75644 11.2686 4.42311 11.9422 4.4069C12.6158 4.39068 13.2676 4.69287 13.7572 5.24828C13.9823 5.52331 14.1593 5.84967 14.2776 6.20809C14.396 6.56652 14.4533 6.94976 14.4462 7.33519C14.4456 7.75026 14.376 8.161 14.2415 8.54339C14.1069 8.92577 13.9102 9.27211 13.6627 9.56212L6.26742 18.3898C5.55061 19.2486 4.58002 19.7327 3.5671 19.7367Z" fill="#6B6B6B"/>
</svg>
