<svg width="15" height="19" viewBox="0 0 15 19" fill="none" xmlns="http://www.w3.org/2000/svg">
<path fill-rule="evenodd" clip-rule="evenodd" d="M10.29 0.79L11 1.5H13.5C14.05 1.5 14.5 1.95 14.5 2.5C14.5 3.05 14.05 3.5 13.5 3.5H1.5C0.95 3.5 0.5 3.05 0.5 2.5C0.5 1.95 0.95 1.5 1.5 1.5H4L4.71 0.79C4.89 0.61 5.15 0.5 5.41 0.5H9.59C9.85 0.5 10.11 0.61 10.29 0.79ZM1.5 16.5C1.5 17.6 2.4 18.5 3.5 18.5H11.5C12.6 18.5 13.5 17.6 13.5 16.5V6.5C13.5 5.4 12.6 4.5 11.5 4.5H3.5C2.4 4.5 1.5 5.4 1.5 6.5V16.5ZM4.5 6.5H10.5C11.05 6.5 11.5 6.95 11.5 7.5V15.5C11.5 16.05 11.05 16.5 10.5 16.5H4.5C3.95 16.5 3.5 16.05 3.5 15.5V7.5C3.5 6.95 3.95 6.5 4.5 6.5Z" fill="#242424"/>
</svg>
