<svg width="23" height="23" viewBox="0 0 23 23" fill="none" xmlns="http://www.w3.org/2000/svg">
<path d="M16.9992 2.79492C16.1767 2.79492 15.3542 3.10676 14.7309 3.73039L4.58575 13.8746C4.39326 14.0671 4.25229 14.3065 4.17755 14.5693L2.81777 19.3307C2.78423 19.4486 2.78279 19.5732 2.81357 19.6918C2.84436 19.8103 2.90627 19.9185 2.99289 20.0051C3.07951 20.0918 3.1877 20.1537 3.30627 20.1845C3.42484 20.2152 3.54948 20.2138 3.6673 20.1803L8.42967 18.8205L8.43056 18.8196C8.69159 18.7445 8.93039 18.6053 9.12343 18.4123L19.2676 8.26717C20.5148 7.01999 20.5148 4.97757 19.2676 3.73039C18.6443 3.10676 17.8218 2.79492 16.9992 2.79492ZM16.9992 4.16187C17.4671 4.16187 17.9343 4.34214 18.2946 4.70256H18.2955C19.0173 5.42437 19.0173 6.57319 18.2955 7.295L17.4066 8.18392L14.8141 5.59147L15.703 4.70256C16.0633 4.34214 16.5314 4.16187 16.9992 4.16187ZM13.8419 6.56364L16.4344 9.15609L8.15037 17.4401C8.1235 17.4668 8.08946 17.4872 8.051 17.4983L4.47923 18.5188L5.49974 14.9461V14.9452C5.51024 14.9083 5.5295 14.8752 5.55792 14.8468L13.8419 6.56364Z" fill="#242424"/>
</svg>
