<svg width="17" height="17" viewBox="0 0 17 17" fill="none" xmlns="http://www.w3.org/2000/svg">
<path d="M11.6256 14.7056C11.9538 15.0336 12.3987 15.2178 12.8626 15.2178C13.3266 15.2178 13.7715 15.0336 14.0996 14.7056L15.1856 13.6196C15.5136 13.2915 15.6978 12.8466 15.6978 12.3826C15.6978 11.9187 15.5136 11.4738 15.1856 11.1456L6.57564 2.53565C6.36564 2.32565 6.10564 2.17165 5.81964 2.09065L2.56864 1.16065C2.43997 1.12387 2.30379 1.1222 2.17425 1.1558C2.04471 1.1894 1.92651 1.25705 1.83193 1.35173C1.73735 1.44641 1.66983 1.56468 1.63637 1.69426C1.60291 1.82384 1.60473 1.96001 1.64164 2.08865L2.57064 5.33865C2.65164 5.62465 2.80564 5.88565 3.01564 6.09665L11.6256 14.7066V14.7056ZM11.8016 9.88265L10.3626 11.3226L4.07664 5.03565C4.04658 5.0056 4.02457 4.96845 4.01264 4.92765L3.45464 2.97465L5.40764 3.53265C5.44845 3.54457 5.48559 3.56658 5.51564 3.59665L11.8016 9.88265ZM13.0396 13.6456C13.0164 13.6689 12.9888 13.6874 12.9585 13.7C12.9281 13.7126 12.8955 13.7191 12.8626 13.7191C12.8298 13.7191 12.7972 13.7126 12.7668 13.7C12.7365 13.6874 12.7089 13.6689 12.6856 13.6456L11.4236 12.3826L12.8626 10.9426L14.1256 12.2056C14.1489 12.2289 14.1674 12.2565 14.18 12.2868C14.1926 12.3172 14.1991 12.3498 14.1991 12.3826C14.1991 12.4155 14.1926 12.4481 14.18 12.4785C14.1674 12.5088 14.1489 12.5364 14.1256 12.5596L13.0396 13.6456Z" fill="#24292F"/>
</svg>
