<svg width="18" height="18" viewBox="0 0 18 18" fill="none" xmlns="http://www.w3.org/2000/svg">
<path d="M3.67776 17.1112C2.75899 17.1113 1.87701 16.7501 1.22221 16.1056L1.14998 16.0334C0.820985 15.7123 0.559573 15.3287 0.381151 14.9051C0.202729 14.4814 0.110906 14.0264 0.111094 13.5667C0.109932 13.0691 0.207543 12.5761 0.398272 12.1165C0.589001 11.6568 0.869055 11.2396 1.22221 10.8889L9.83332 2.37226C10.7082 1.4613 11.906 0.930459 13.1685 0.894089C14.4311 0.85772 15.6574 1.31873 16.5833 2.17782C17.0009 2.59437 17.3314 3.08988 17.5556 3.63546C17.7797 4.18104 17.893 4.76578 17.8889 5.3556C17.8839 6.01432 17.7489 6.66558 17.4914 7.27194C17.234 7.87831 16.8593 8.42783 16.3889 8.88893L8.64998 16.5556C8.60188 16.6203 8.54026 16.6738 8.46941 16.7123C8.39857 16.7508 8.32019 16.7734 8.23972 16.7786C8.15925 16.7837 8.07862 16.7713 8.00344 16.7422C7.92825 16.7131 7.8603 16.6679 7.80432 16.6099C7.74833 16.5519 7.70565 16.4823 7.67923 16.4062C7.65281 16.33 7.6433 16.2489 7.65135 16.1687C7.65939 16.0885 7.68481 16.011 7.72582 15.9415C7.76684 15.8721 7.82248 15.8125 7.88887 15.7667L15.6055 8.10004C15.972 7.7423 16.2642 7.31571 16.4654 6.84474C16.6665 6.37377 16.7727 5.8677 16.7778 5.3556C16.7818 4.9124 16.6974 4.47285 16.5295 4.06267C16.3616 3.65248 16.1136 3.27989 15.8 2.96671C15.0821 2.31274 14.1362 1.96672 13.1658 2.00308C12.1954 2.03945 11.278 2.4553 10.6111 3.16115L2.02776 11.6778C1.77482 11.9234 1.57332 12.2169 1.43502 12.5412C1.29671 12.8656 1.22437 13.2141 1.22221 13.5667C1.22102 13.8763 1.2813 14.183 1.39955 14.4691C1.51781 14.7552 1.69168 15.015 1.91109 15.2334L1.98332 15.3056C2.4804 15.7633 3.13735 16.0076 3.81273 15.9858C4.48812 15.9639 5.12793 15.6778 5.59443 15.1889L13.0111 7.8556C13.1514 7.71378 13.2619 7.54542 13.3363 7.36036C13.4107 7.1753 13.4475 6.97725 13.4444 6.77782C13.4456 6.6046 13.4124 6.43286 13.3466 6.27262C13.2808 6.11239 13.1837 5.96685 13.0611 5.84449C12.7805 5.58721 12.4101 5.45059 12.0296 5.4641C11.6492 5.47761 11.2894 5.64018 11.0278 5.91671L5.91665 10.9834C5.81204 11.0873 5.67044 11.1453 5.52302 11.1448C5.37559 11.1443 5.23442 11.0852 5.13054 10.9806C5.02666 10.876 4.9686 10.7344 4.96912 10.587C4.96964 10.4395 5.0287 10.2984 5.13332 10.1945L10.2667 5.11115C10.7372 4.62911 11.3784 4.35137 12.0519 4.33786C12.7254 4.32435 13.3772 4.57615 13.8667 5.03893C14.0918 5.26809 14.2687 5.54003 14.387 5.83868C14.5053 6.13733 14.5626 6.45666 14.5555 6.77782C14.5549 7.12366 14.4854 7.46591 14.3508 7.78453C14.2163 8.10315 14.0196 8.39173 13.7722 8.63337L6.37776 15.9889C5.66104 16.7045 4.69056 17.1079 3.67776 17.1112Z" fill="#AFAFAF"/>
</svg>
