<svg width="22" height="23" viewBox="0 0 22 23" fill="none" xmlns="http://www.w3.org/2000/svg">
<path d="M6.29492 16.0951L10.3402 16.0814L19.1695 7.33637C19.516 6.98987 19.7067 6.5297 19.7067 6.0402C19.7067 5.5507 19.516 5.09054 19.1695 4.74404L17.7157 3.2902C17.0227 2.5972 15.8136 2.60087 15.1261 3.28745L6.29492 12.0343V16.0951ZM16.4195 4.58637L17.8761 6.03745L16.4122 7.48762L14.9583 6.0347L16.4195 4.58637ZM8.12826 12.7988L13.6558 7.32354L15.1096 8.77737L9.58301 14.2508L8.12826 14.2554V12.7988Z" fill="#6B6B6B"/>
<path d="M4.46224 19.75H17.2956C18.3067 19.75 19.1289 18.9278 19.1289 17.9167V9.971L17.2956 11.8043V17.9167H7.35707C7.33324 17.9167 7.30849 17.9258 7.28466 17.9258C7.25441 17.9258 7.22416 17.9176 7.19299 17.9167H4.46224V5.08333H10.7387L12.572 3.25H4.46224C3.45116 3.25 2.62891 4.07225 2.62891 5.08333V17.9167C2.62891 18.9278 3.45116 19.75 4.46224 19.75Z" fill="#6B6B6B"/>
</svg>
