<svg width="19" height="19" viewBox="0 0 19 19" fill="none" xmlns="http://www.w3.org/2000/svg">
<path fill-rule="evenodd" clip-rule="evenodd" d="M15.864 3.13604C19.3787 6.65076 19.3787 12.3492 15.864 15.864C12.3492 19.3787 6.65076 19.3787 3.13604 15.864C-0.37868 12.3492 -0.37868 6.65076 3.13604 3.13604C6.65076 -0.37868 12.3492 -0.37868 15.864 3.13604ZM13.6925 15.1067L3.89327 5.30749C1.83767 8.0493 2.05666 11.9562 4.55025 14.4497C7.04384 16.9433 10.9507 17.1623 13.6925 15.1067ZM14.4497 4.55025C16.9433 7.04384 17.1623 10.9507 15.1067 13.6925L5.30749 3.89327C8.0493 1.83767 11.9562 2.05666 14.4497 4.55025Z" fill="#242424"/>
</svg>
