<svg width="27" height="27" viewBox="0 0 27 27" fill="#DA5810" xmlns="http://www.w3.org/2000/svg">
<path fill-rule="evenodd" clip-rule="evenodd" d="M8.33512 9.32743L14.5676 3.09493C15.2201 2.43118 16.2776 2.43118 16.9414 3.08368C17.3464 3.48868 17.5151 4.06243 17.4026 4.62493L16.3339 9.77743H22.6901C25.1089 9.77743 26.7401 12.2524 25.7951 14.4799L22.1276 23.0412C21.7676 23.8624 20.9576 24.4024 20.0576 24.4024H9.93262C8.69512 24.4024 7.68262 23.3899 7.68262 22.1524V10.9137C7.68262 10.3174 7.91887 9.74368 8.33512 9.32743ZM5.43262 22.1524C5.43262 23.3899 4.42012 24.4024 3.18262 24.4024C1.94512 24.4024 0.932617 23.3899 0.932617 22.1524V13.1524C0.932617 11.9149 1.94512 10.9024 3.18262 10.9024C4.42012 10.9024 5.43262 11.9149 5.43262 13.1524V22.1524Z" stroke="#DA5810" stroke-width="1.5"/>
</svg>

