<svg width="17" height="18" viewBox="0 0 17 18" fill="none" xmlns="http://www.w3.org/2000/svg">
<path d="M12.1981 8.92995V8.17995H11.4481V8.92995H12.1981ZM15.0329 6.82237L15.5632 6.29204V6.29204L15.0329 6.82237ZM9.37567 1.16518L8.84474 1.69491L8.84534 1.69551L9.37567 1.16518ZM7.63784 1.16518L8.16817 1.69551L8.16876 1.69491L7.63784 1.16518ZM1.98064 6.82237L2.51097 7.3527L1.98064 6.82237ZM4.80308 8.92995H5.55308V8.17995H4.80308V8.92995ZM6.03558 17.075H10.9656V15.575H6.03558V17.075ZM10.9656 17.075C12.0577 17.075 12.9481 16.1846 12.9481 15.0925H11.4481C11.4481 15.3561 11.2293 15.575 10.9656 15.575V17.075ZM12.9481 15.0925V8.92995H11.4481V15.0925H12.9481ZM12.1981 9.67995H14.1578V8.17995H12.1981V9.67995ZM14.1578 9.67995C15.9194 9.67995 16.8146 7.54345 15.5632 6.29204L14.5025 7.3527C14.8041 7.65425 14.59 8.17995 14.1578 8.17995V9.67995ZM15.5632 6.29204L9.906 0.634847L8.84534 1.69551L14.5025 7.3527L15.5632 6.29204ZM9.9066 0.635445C9.53562 0.263637 9.03198 0.0546875 8.50675 0.0546875V1.55469C8.63357 1.55469 8.75517 1.60514 8.84474 1.69491L9.9066 0.635445ZM8.50675 0.0546875C7.98153 0.0546875 7.47788 0.263637 7.10691 0.635445L8.16876 1.69491C8.25833 1.60514 8.37994 1.55469 8.50675 1.55469V0.0546875ZM7.10751 0.634847L1.45031 6.29204L2.51097 7.3527L8.16817 1.69551L7.10751 0.634847ZM1.45031 6.29204C0.210239 7.53212 1.06576 9.67995 2.8434 9.67995V8.17995C2.42718 8.17995 2.19809 7.66558 2.51097 7.3527L1.45031 6.29204ZM2.8434 9.67995H4.80308V8.17995H2.8434V9.67995ZM4.05308 8.92995V15.0925H5.55308V8.92995H4.05308ZM4.05308 15.0925C4.05308 16.1846 4.94349 17.075 6.03558 17.075V15.575C5.77192 15.575 5.55308 15.3561 5.55308 15.0925H4.05308Z" fill="#6B6B6B"/>
</svg>
