<svg width="16" height="17" viewBox="0 0 16 17" fill="none" xmlns="http://www.w3.org/2000/svg">
<path id="Vector" d="M8 17C9.1 17 10 16.2154 10 15.2564H6C6 16.2154 6.9 17 8 17ZM14 11.7692V7.41026C14 4.73385 12.37 2.49333 9.5 1.90051V1.30769C9.5 0.584103 8.83 0 8 0C7.17 0 6.5 0.584103 6.5 1.30769V1.90051C3.64 2.49333 2 4.72513 2 7.41026V11.7692L0 13.5128V14.3846H16V13.5128L14 11.7692ZM12 12.641H4V7.41026C4 5.24821 5.51 3.48718 8 3.48718C10.49 3.48718 12 5.24821 12 7.41026V12.641Z" fill="#434343"/>
</svg>
