<svg width="20" height="20" viewBox="0 0 20 20" fill="none" xmlns="http://www.w3.org/2000/svg">
<path d="M9.11765 4H6.67059C5.38576 4 4.74335 4 4.25261 4.24346C3.82094 4.45761 3.46999 4.79933 3.25004 5.21963C3 5.69745 3 6.32295 3 7.57395V11.4457C3 12.1382 3 12.4844 3.07817 12.7684C3.2903 13.5393 3.90867 14.1414 4.70036 14.3479C4.99209 14.424 5.34767 14.424 6.05882 14.424V16.163C6.05882 16.5597 6.05882 16.7581 6.14235 16.86C6.21499 16.9486 6.32515 17.0001 6.44159 17C6.57548 16.9999 6.73457 16.8759 7.05276 16.6281L8.87693 15.2072C9.24957 14.9169 9.43589 14.7718 9.64337 14.6686C9.82745 14.577 10.0234 14.5101 10.2259 14.4696C10.4541 14.424 10.6927 14.424 11.1699 14.424H12.3294C13.6142 14.424 14.2567 14.424 14.7474 14.1806C15.1791 13.9664 15.53 13.6247 15.75 13.2044C16 12.7266 16 12.1011 16 10.8501V10.7012" stroke="#DA5810" stroke-width="1.5" stroke-linecap="round" stroke-linejoin="round"/>
<path d="M12 4.20215C12.1613 3.80133 12.4797 3.46334 12.8988 3.24805C13.3178 3.03277 13.8106 2.95407 14.2897 3.0259C14.7688 3.09773 15.2033 3.31546 15.5163 3.64052C15.8294 3.96557 16.0007 4.37698 16 4.80188C16 6.00134 13.9417 6.60107 13.9417 6.60107M13.9966 9H14.0034" stroke="#DA5810" stroke-width="1.5" stroke-linecap="round" stroke-linejoin="round"/>
</svg>
