<svg width="30" height="30" viewBox="0 0 30 30" fill="none" xmlns="http://www.w3.org/2000/svg">
<path d="M28.5 8.25C28.5 10.0402 27.7888 11.7571 26.523 13.023C25.2571 14.2888 23.5402 15 21.75 15C19.9598 15 18.2429 14.2888 16.977 13.023C15.7112 11.7571 15 10.0402 15 8.25C15 6.45979 15.7112 4.7429 16.977 3.47703C18.2429 2.21116 19.9598 1.5 21.75 1.5C23.5402 1.5 25.2571 2.21116 26.523 3.47703C27.7888 4.7429 28.5 6.45979 28.5 8.25ZM22.5 5.25C22.5 5.05109 22.421 4.86032 22.2803 4.71967C22.1397 4.57902 21.9489 4.5 21.75 4.5C21.5511 4.5 21.3603 4.57902 21.2197 4.71967C21.079 4.86032 21 5.05109 21 5.25V7.5H18.75C18.5511 7.5 18.3603 7.57902 18.2197 7.71967C18.079 7.86032 18 8.05109 18 8.25C18 8.44891 18.079 8.63968 18.2197 8.78033C18.3603 8.92098 18.5511 9 18.75 9H21V11.25C21 11.4489 21.079 11.6397 21.2197 11.7803C21.3603 11.921 21.5511 12 21.75 12C21.9489 12 22.1397 11.921 22.2803 11.7803C22.421 11.6397 22.5 11.4489 22.5 11.25V9H24.75C24.9489 9 25.1397 8.92098 25.2803 8.78033C25.421 8.63968 25.5 8.44891 25.5 8.25C25.5 8.05109 25.421 7.86032 25.2803 7.71967C25.1397 7.57902 24.9489 7.5 24.75 7.5H22.5V5.25ZM22.5 24.777V16.467C23.0075 16.4211 23.5097 16.3282 24 16.1895V26.25C23.9999 26.3883 23.9615 26.5238 23.8892 26.6417C23.8169 26.7595 23.7134 26.8551 23.5901 26.9178C23.4669 26.9805 23.3287 27.0079 23.1908 26.997C23.053 26.9861 22.9208 26.9373 22.809 26.856L15 21.177L7.191 26.856C7.07915 26.9373 6.947 26.9861 6.80915 26.997C6.67131 27.0079 6.53313 26.9805 6.40988 26.9178C6.28664 26.8551 6.18313 26.7595 6.1108 26.6417C6.03846 26.5238 6.00012 26.3883 6 26.25V6.75C6 5.75544 6.39509 4.80161 7.09835 4.09835C7.80161 3.39509 8.75544 3 9.75 3H15.3855C15.0035 3.4627 14.673 3.96567 14.4 4.5H9.75C9.15326 4.5 8.58097 4.73705 8.15901 5.15901C7.73705 5.58097 7.5 6.15326 7.5 6.75V24.777L14.559 19.644C14.6872 19.5508 14.8415 19.5006 15 19.5006C15.1585 19.5006 15.3128 19.5508 15.441 19.644L22.5 24.777Z" fill="#039F98"/>
</svg>
