<svg width="18" height="19" viewBox="0 0 18 19" fill="none" xmlns="http://www.w3.org/2000/svg">
<g clip-path="url(#clip0_1594_15856)">
<path fill-rule="evenodd" clip-rule="evenodd" d="M0 4.01011C0 2.56341 1.17278 1.39062 2.61949 1.39062H15.193C16.6397 1.39062 17.8125 2.56341 17.8125 4.01011V11.6939C17.8125 13.1406 16.6397 14.3134 15.193 14.3134H9.56135C9.51261 14.3134 9.46609 14.3338 9.43303 14.3696L5.69166 18.4228C5.28192 18.8666 4.54044 18.5767 4.54044 17.9726V14.4881C4.54044 14.3916 4.46226 14.3134 4.36581 14.3134H2.61948C1.17278 14.3134 0 13.1406 0 11.6939V4.01011ZM2.61949 2.43842C1.75146 2.43842 1.04779 3.14209 1.04779 4.01011V11.6939C1.04779 12.562 1.75146 13.2656 2.61948 13.2656H4.36581C5.04094 13.2656 5.58823 13.8129 5.58823 14.4881V16.99L8.66311 13.6589C8.89452 13.4082 9.22017 13.2656 9.56135 13.2656H15.193C16.061 13.2656 16.7647 12.562 16.7647 11.6939V4.01011C16.7647 3.14209 16.061 2.43842 15.193 2.43842H2.61949Z" fill="#DA5810"/>
</g>
<defs>
<clipPath id="clip0_1594_15856">
<rect width="18" height="18" fill="white" transform="translate(0 0.640625)"/>
</clipPath>
</defs>
</svg>
