<svg width="24" height="25" viewBox="0 0 24 25" fill="none" xmlns="http://www.w3.org/2000/svg">
<path fill-rule="evenodd" clip-rule="evenodd" d="M9.14592 4.64592C9.19236 4.59935 9.24754 4.56241 9.30828 4.5372C9.36903 4.512 9.43415 4.49902 9.49992 4.49902C9.56568 4.49902 9.63081 4.512 9.69155 4.5372C9.7523 4.56241 9.80747 4.59935 9.85392 4.64592L17.1769 11.9699C17.3174 12.1105 17.3963 12.3012 17.3963 12.4999C17.3963 12.6987 17.3174 12.8893 17.1769 13.0299L9.85392 20.3539C9.76003 20.4478 9.63269 20.5005 9.49992 20.5005C9.36714 20.5005 9.2398 20.4478 9.14592 20.3539C9.05203 20.26 8.99929 20.1327 8.99929 19.9999C8.99929 19.8671 9.05203 19.7398 9.14592 19.6459L16.2929 12.4999L9.14592 5.35392C9.09935 5.30747 9.06241 5.2523 9.0372 5.19155C9.012 5.13081 8.99902 5.06568 8.99902 4.99992C8.99902 4.93415 9.012 4.86903 9.0372 4.80828C9.06241 4.74754 9.09935 4.69236 9.14592 4.64592Z" fill="#5A6474"/>
</svg>
