<svg width="25" height="24" viewBox="0 0 25 24" fill="none" xmlns="http://www.w3.org/2000/svg">
<path d="M12.5 0C5.6125 0 0 5.18694 0 11.5522C0 17.9175 5.6125 23.1044 12.5 23.1044C19.3875 23.1044 25 17.9175 25 11.5522C25 5.18694 19.3875 0 12.5 0ZM17.5 12.4186H13.4375V16.1731C13.4375 16.6467 13.0125 17.0395 12.5 17.0395C11.9875 17.0395 11.5625 16.6467 11.5625 16.1731V12.4186H7.5C6.9875 12.4186 6.5625 12.0258 6.5625 11.5522C6.5625 11.0786 6.9875 10.6858 7.5 10.6858H11.5625V6.93132C11.5625 6.45768 11.9875 6.0649 12.5 6.0649C13.0125 6.0649 13.4375 6.45768 13.4375 6.93132V10.6858H17.5C18.0125 10.6858 18.4375 11.0786 18.4375 11.5522C18.4375 12.0258 18.0125 12.4186 17.5 12.4186Z" fill="#4E4F50"/>
</svg>
