<svg width="15" height="15" viewBox="0 0 15 15" fill="none" xmlns="http://www.w3.org/2000/svg">
<g clip-path="url(#clip0_71_2)">
<path d="M7.03124 14.0628H0.937512V0.937778H7.03124C7.29 0.937778 7.49998 0.727762 7.49998 0.469042C7.49998 0.210321 7.28996 0.000305176 7.03124 0.000305176H0.468737C0.210016 0.000305176 0 0.210282 0 0.469042V14.5315C0 14.7902 0.210016 15.0002 0.468737 15.0002H7.0312C7.28996 15.0002 7.49994 14.7902 7.49994 14.5315C7.49998 14.2727 7.28996 14.0628 7.03124 14.0628Z" fill="#FF4B4B"/>
<path d="M14.8641 7.1728L11.6297 3.89203C11.4464 3.70688 11.1497 3.70734 10.9669 3.89203C10.7836 4.07672 10.7836 4.37671 10.9669 4.5614L13.4044 7.03405H3.75145C3.49269 7.03405 3.28271 7.24594 3.28271 7.5075C3.28271 7.76907 3.49273 7.98095 3.75145 7.98095H13.4044L10.9669 10.4536C10.7836 10.6388 10.7836 10.9383 10.9669 11.123C11.1502 11.3081 11.4469 11.3081 11.6297 11.123L14.8636 7.8422C15.0445 7.65985 15.0464 7.35468 14.8641 7.1728Z" fill="#FF4B4B"/>
</g>
<defs>
<clipPath id="clip0_71_2">
<rect width="15" height="15" fill="white"/>
</clipPath>
</defs>
</svg>
