 <svg width="18" height="19" viewBox="0 0 18 19" fill="none" xmlns="http://www.w3.org/2000/svg">
                  <path
                    d="M8.73418 1.81934C5.59582 1.81934 3.04533 4.09219 3.04533 6.88889V9.33076C3.04533 9.84616 2.79881 10.6319 2.50489 11.0713L1.41453 12.6851C0.741352 13.6821 1.20594 14.789 2.43852 15.1607C6.525 16.3774 10.9339 16.3774 15.0203 15.1607C16.1676 14.8228 16.6701 13.6145 16.0443 12.6851L15.0203 11.0713C14.6698 10.5021 14.423 9.84701 14.423 9.33076V7.14827C14.4575 6.88823 14.437 6.27869 14.0792 5.9208"
                    stroke="#40454A" stroke-width="1.5" stroke-miterlimit="10" stroke-linecap="round" />
                  <path
                    d="M10.4876 2.06461C10.1937 1.98856 9.89028 1.92942 9.57739 1.89562C8.66718 1.79423 7.79489 1.85337 6.97949 2.06461C7.25445 1.43936 7.93711 1 8.73355 1C9.52999 1 10.2126 1.43936 10.4876 2.06461Z"
                    stroke="#40454A" stroke-width="1.5" stroke-miterlimit="10" stroke-linecap="round"
                    stroke-linejoin="round" />
                  <path
                    d="M11.5775 15.4658C11.5775 16.8599 10.2975 18.0006 8.73306 18.0006C7.95559 18.0006 7.235 17.7133 6.72303 17.2571C6.21104 16.8008 5.88867 16.1587 5.88867 15.4658"
                    stroke="#40454A" stroke-width="1.5" stroke-miterlimit="10" />
                  <path class="dot"
                    d="M13.0723 6.13182C14.2459 6.13182 15.1973 5.18327 15.1973 4.01318C15.1973 2.84308 14.2459 1.89453 13.0723 1.89453C11.8987 1.89453 10.9473 2.84308 10.9473 4.01318C10.9473 5.18327 11.8987 6.13182 13.0723 6.13182Z"
                    stroke="#40454A" stroke-width="1.5" stroke-linecap="round" stroke-linejoin="round" />
                </svg>