<svg width="27" height="30" viewBox="0 0 27 30" fill="none" xmlns="http://www.w3.org/2000/svg">
<path d="M13.9296 2.3501C8.83593 2.3501 4.69634 6.09362 4.69634 10.7V14.7219C4.69634 15.5708 4.29624 16.865 3.81918 17.5886L2.04947 20.2467C0.956872 21.8888 1.71092 23.7119 3.71146 24.3242C10.344 26.3281 17.4998 26.3281 24.1324 24.3242C25.9944 23.7675 26.81 21.7775 25.7944 20.2467L24.1324 17.5886C23.5635 16.6511 23.1629 15.5722 23.1629 14.7219V11.1272C23.2189 10.6989 23.1857 9.69492 22.6048 9.10544" stroke="#039F98" stroke-width="1.5" stroke-miterlimit="10" stroke-linecap="round"/>
<path d="M16.7751 2.75347C16.2981 2.62822 15.8057 2.53081 15.2978 2.47514C13.8205 2.30814 12.4047 2.40556 11.0813 2.75347C11.5276 1.72365 12.6356 1 13.9282 1C15.2209 1 16.3289 1.72365 16.7751 2.75347Z" stroke="#039F98" stroke-width="1.5" stroke-miterlimit="10" stroke-linecap="round" stroke-linejoin="round"/>
<path d="M18.544 24.8254C18.544 27.1216 16.4665 29.0004 13.9274 29.0004C12.6655 29.0004 11.496 28.5272 10.665 27.7757C9.83401 27.0242 9.31079 25.9666 9.31079 24.8254" stroke="#039F98" stroke-width="1.5" stroke-miterlimit="10"/>
<path d="M20.971 9.4527C22.8758 9.4527 24.4199 7.89038 24.4199 5.96316C24.4199 4.03595 22.8758 2.47363 20.971 2.47363C19.0662 2.47363 17.522 4.03595 17.522 5.96316C17.522 7.89038 19.0662 9.4527 20.971 9.4527Z" stroke="#039F98" stroke-width="1.5" stroke-linecap="round" stroke-linejoin="round"/>
</svg>
