<svg width="17" height="19" viewBox="0 0 17 19" fill="none" xmlns="http://www.w3.org/2000/svg">
<path fill-rule="evenodd" clip-rule="evenodd" d="M16.086 2.00483H15.0164C14.8275 1.4186 14.4772 0.910967 14.0138 0.551896C13.5505 0.192825 12.9968 0 12.4291 0C11.8615 0 11.3078 0.192825 10.8445 0.551896C10.3811 0.910967 10.0308 1.4186 9.84193 2.00483H1.45864C1.21618 2.00483 0.983646 2.11032 0.812199 2.29808C0.640752 2.48584 0.544434 2.74049 0.544434 3.00603C0.544434 3.27156 0.640752 3.52621 0.812199 3.71397C0.983646 3.90173 1.21618 4.00722 1.45864 4.00722H9.84193C10.0308 4.59345 10.3811 5.10108 10.8445 5.46015C11.3078 5.81923 11.8615 6.01205 12.4291 6.01205C12.9968 6.01205 13.5505 5.81923 14.0138 5.46015C14.4772 5.10108 14.8275 4.59345 15.0164 4.00722H16.086C16.3284 4.00722 16.561 3.90173 16.7324 3.71397C16.9039 3.52621 17.0002 3.27156 17.0002 3.00603C17.0002 2.74049 16.9039 2.48584 16.7324 2.29808C16.561 2.11032 16.3284 2.00483 16.086 2.00483ZM12.4291 4.00722C12.6716 4.00722 12.9041 3.90173 13.0756 3.71397C13.247 3.52621 13.3433 3.27156 13.3433 3.00603C13.3433 2.74049 13.247 2.48584 13.0756 2.29808C12.9041 2.11032 12.6716 2.00483 12.4291 2.00483C12.1867 2.00483 11.9541 2.11032 11.7827 2.29808C11.6113 2.48584 11.5149 2.74049 11.5149 3.00603C11.5149 3.27156 11.6113 3.52621 11.7827 3.71397C11.9541 3.90173 12.1867 4.00722 12.4291 4.00722ZM0.544434 9.01317C0.544434 8.74764 0.640752 8.49298 0.812199 8.30522C0.983646 8.11746 1.21618 8.01198 1.45864 8.01198H2.52827C2.71714 7.42575 3.06741 6.91811 3.53079 6.55904C3.99416 6.19997 4.54783 6.00714 5.11548 6.00714C5.68312 6.00714 6.23679 6.19997 6.70016 6.55904C7.16354 6.91811 7.51381 7.42575 7.70268 8.01198H16.086C16.3284 8.01198 16.561 8.11746 16.7324 8.30522C16.9039 8.49298 17.0002 8.74764 17.0002 9.01317C17.0002 9.2787 16.9039 9.53336 16.7324 9.72112C16.561 9.90888 16.3284 10.0144 16.086 10.0144H7.70268C7.51381 10.6006 7.16354 11.1082 6.70016 11.4673C6.23679 11.8264 5.68312 12.0192 5.11548 12.0192C4.54783 12.0192 3.99416 11.8264 3.53079 11.4673C3.06741 11.1082 2.71714 10.6006 2.52827 10.0144H1.45864C1.21618 10.0144 0.983646 9.90888 0.812199 9.72112C0.640752 9.53336 0.544434 9.2787 0.544434 9.01317ZM5.11548 10.0144C5.35794 10.0144 5.59047 9.90888 5.76192 9.72112C5.93336 9.53336 6.02968 9.2787 6.02968 9.01317C6.02968 8.74764 5.93336 8.49298 5.76192 8.30522C5.59047 8.11746 5.35794 8.01198 5.11548 8.01198C4.87301 8.01198 4.64048 8.11746 4.46903 8.30522C4.29759 8.49298 4.20127 8.74764 4.20127 9.01317C4.20127 9.2787 4.29759 9.53336 4.46903 9.72112C4.64048 9.90888 4.87301 10.0144 5.11548 10.0144ZM1.45864 14.0191C1.21618 14.0191 0.983646 14.1246 0.812199 14.3124C0.640752 14.5001 0.544434 14.7548 0.544434 15.0203C0.544434 15.2858 0.640752 15.5405 0.812199 15.7283C0.983646 15.916 1.21618 16.0215 1.45864 16.0215H9.84193C10.0308 16.6077 10.3811 17.1154 10.8445 17.4744C11.3078 17.8335 11.8615 18.0263 12.4291 18.0263C12.9968 18.0263 13.5505 17.8335 14.0138 17.4744C14.4772 17.1154 14.8275 16.6077 15.0164 16.0215H16.086C16.3284 16.0215 16.561 15.916 16.7324 15.7283C16.9039 15.5405 17.0002 15.2858 17.0002 15.0203C17.0002 14.7548 16.9039 14.5001 16.7324 14.3124C16.561 14.1246 16.3284 14.0191 16.086 14.0191H15.0164C14.8275 13.4329 14.4772 12.9253 14.0138 12.5662C13.5505 12.2071 12.9968 12.0143 12.4291 12.0143C11.8615 12.0143 11.3078 12.2071 10.8445 12.5662C10.3811 12.9253 10.0308 13.4329 9.84193 14.0191H1.45864ZM13.3433 15.0203C13.3433 15.2858 13.247 15.5405 13.0756 15.7283C12.9041 15.916 12.6716 16.0215 12.4291 16.0215C12.1867 16.0215 11.9541 15.916 11.7827 15.7283C11.6113 15.5405 11.5149 15.2858 11.5149 15.0203C11.5149 14.7548 11.6113 14.5001 11.7827 14.3124C11.9541 14.1246 12.1867 14.0191 12.4291 14.0191C12.6716 14.0191 12.9041 14.1246 13.0756 14.3124C13.247 14.5001 13.3433 14.7548 13.3433 15.0203Z" fill="#848484"/>
</svg>
