<svg width="19" height="19" viewBox="0 0 19 19" fill="none" xmlns="http://www.w3.org/2000/svg">
<g clip-path="url(#clip0_1594_15859)">
<path d="M17.5317 10.3096C17.8798 9.92788 17.8798 9.34375 17.5317 8.96199L11.6818 2.54739C11.0664 1.87259 9.94295 2.30796 9.94295 3.22122V6.02887H8.99002C6.62947 6.02887 4.4101 6.94815 2.74086 8.61738C1.07162 10.2866 0.152344 12.506 0.152344 14.8667V17.3511C0.152344 17.8076 0.713896 18.0253 1.02166 17.6881L1.72668 16.9156C3.83263 14.6084 6.82201 13.2737 9.94295 13.2433V16.0505C9.94295 16.9638 11.0665 17.3992 11.6818 16.7243L17.5317 10.3096ZM1.20717 15.9289V14.8667C1.20717 12.7878 2.01672 10.8332 3.48669 9.36322C4.95667 7.89325 6.91113 7.08369 8.99002 7.08369H10.9976V3.36262L16.7188 9.63582L10.9976 15.9091V12.1881H10.0513C6.72189 12.1881 3.5202 13.547 1.20717 15.9289Z" fill="#DA5810"/>
</g>
<defs>
<clipPath id="clip0_1594_15859">
<rect width="18" height="18" fill="white" transform="translate(0.152344 0.640625)"/>
</clipPath>
</defs>
</svg>
