<svg width="25" height="24" viewBox="0 0 25 24" fill="none" xmlns="http://www.w3.org/2000/svg">
<path d="M24.3852 12.1673C24.7335 11.7855 24.7335 11.2012 24.3852 10.8194L15.3415 0.905985C14.7261 0.231354 13.6027 0.666761 13.6027 1.57994V6.48367H12.2788C8.9991 6.48367 5.91557 7.76045 3.5964 10.0788C1.27722 12.3972 0 15.4797 0 18.7584V22.7108C0 23.1673 0.561465 23.385 0.869254 23.0479L2.18734 21.6042C5.11326 18.3996 9.2666 16.5459 13.6027 16.5037V21.4069C13.6027 22.3201 14.7261 22.7555 15.3415 22.0808L24.3852 12.1673ZM1.46554 20.2337V18.7584C1.46554 15.8711 2.59031 13.1563 4.63263 11.1147C6.67496 9.07309 9.39043 7.94871 12.2788 7.94871H15.0681V2.78056L23.0168 11.4933L15.0681 20.2063V15.0381H13.7533C9.12751 15.0381 4.67919 16.9255 1.46554 20.2337Z" fill="#DA5810"/>
</svg>
